#!OML:ASF I:\Actors\actors\Patient Classification 2\Patient 1\Session 1\actor1.ASF
:FULLY-SPECIFIED
:DEGREES
145
root -0.67743 18.6058 6.34517 -1.20753 -3.90606 -2.70271
lowerback 4.33973 1.08636 1.32772
upperback 0.264679 1.52748 0.666815
thorax -2.1437 0.751947 -0.152993
lowerneck -9.17424 -1.5641 -2.27065
upperneck 16.1791 -1.82247 0.276229
head 6.45329 -0.996816 0.313154
rclavicle 6.14058e-015 -1.2424e-014
rhumerus -45.8 -2.44618 -87.7197
rradius 41.9115
rwrist 15.6408
rhand -8.51606 -28.6515
rfingers 7.12502
rthumb 17.4122 -57.8916
lclavicle 6.14058e-015 -1.2424e-014
lhumerus -38.771 -2.69292 93.733
lradius 35.7037
lwrist -9.44872
lhand -4.34237 -24.6337
lfingers 7.12502
lthumb 21.4252 4.20165
rfemur 11.5945 -5.57963 15.1097
rtibia -1.59028e-014
rfoot -12.9358 -4.1542
rtoes -5.79691
lfemur -1.24055 -6.06355 -12.9346
ltibia 23.7651
lfoot -23.3435 11.2077
ltoes -56.2429
146
root -0.678363 18.6055 6.34037 -1.21848 -3.88536 -2.71311
lowerback 4.39865 1.06559 1.29836
upperback 0.241531 1.50022 0.684517
thorax -2.20205 0.738274 -0.118283
lowerneck -9.12536 -1.5402 -2.28637
upperneck 16.1657 -1.7949 0.312989
head 6.44059 -0.981524 0.330172
rclavicle 8.66888e-015 1.09332e-015
rhumerus -45.8353 -2.42134 -87.7302
rradius 41.8983
rwrist 15.7521
rhand -8.58131 -28.6258
rfingers 7.12502
rthumb 17.3494 -57.8715
lclavicle 8.66888e-015 1.09332e-015
lhumerus -38.812 -2.59521 93.7036
lradius 35.7071
lwrist -9.45287
lhand -4.25482 -24.5933
lfingers 7.12502
lthumb 21.5092 4.23243
rfemur 11.5949 -5.60039 15.1253
rtibia 1.59028e-014
rfoot -12.9085 -4.13483
rtoes -5.77756
lfemur -1.24959 -6.02684 -12.9075
ltibia 23.7584
lfoot -23.2712 11.1723
ltoes -56.3344
147
root -0.678063 18.6051 6.33641 -1.24553 -3.87829 -2.71019
lowerback 4.43873 1.038 1.24685
upperback 0.237094 1.46243 0.716176
thorax -2.2316 0.719895 -0.0555081
lowerneck -9.04891 -1.53216 -2.44518
upperneck 16.1126 -1.79084 0.489423
head 6.41345 -0.974886 0.413643
rclavicle -9.71249e-015 -3.77691e-015
rhumerus -45.8555 -2.32741 -87.7381
rradius 41.8685
rwrist 15.9051
rhand -8.53961 -28.6383
rfingers 7.12502
rthumb 17.3896 -57.8804
lclavicle -9.71249e-015 -3.77691e-015
lhumerus -38.8381 -2.4945 93.705
lradius 35.7046
lwrist -9.41784
lhand -4.22442 -24.5933
lfingers 7.12502
lthumb 21.5384 4.22906
rfemur 11.611 -5.60559 15.1228
rtibia 6.36111e-015
rfoot -12.9109 -4.12001
rtoes -6.05652
lfemur -1.24101 -5.99687 -12.9031
ltibia 23.7607
lfoot -23.2325 11.1481
ltoes -56.4295
148
root -0.677297 18.605 6.33384 -1.2662 -3.87584 -2.72231
lowerback 4.44826 1.01931 1.23018
upperback 0.245681 1.43733 0.74169
thorax -2.22942 0.707696 -0.0185249
lowerneck -9.10692 -1.61219 -2.72121
upperneck 16.1614 -1.92549 0.902118
head 6.44793 -1.02356 0.57901
rclavicle -2.37454e-015 -1.2424e-014
rhumerus -45.8417 -2.23396 -87.7463
rradius 41.8613
rwrist 15.9597
rhand -8.10768 -28.7665
rfingers 7.12502
rthumb 17.8052 -57.9714
lclavicle -2.37454e-015 -1.2424e-014
lhumerus -38.8736 -2.49822 93.7423
lradius 35.7428
lwrist -9.3727
lhand -4.29368 -24.585
lfingers 7.12502
lthumb 21.4719 4.245
rfemur 11.6262 -5.60662 15.1332
rtibia -1.43125e-014
rfoot -12.918 -4.13517
rtoes -6.5729
lfemur -1.22633 -5.99477 -12.891
ltibia 23.7625
lfoot -23.2314 11.14
ltoes -56.4432
149
root -0.676812 18.6049 6.33157 -1.27878 -3.88068 -2.74487
lowerback 4.44971 1.01143 1.23106
upperback 0.273454 1.427 0.763474
thorax -2.20231 0.702852 0.00427405
lowerneck -9.26883 -1.68989 -2.89844
upperneck 16.25 -2.05276 1.21439
head 6.51188 -1.07031 0.69587
rclavicle -5.44018e-015 5.86415e-015
rhumerus -45.7842 -2.1443 -87.7469
rradius 41.8828
rwrist 15.8441
rhand -7.69824 -28.79
rfingers 7.12502
rthumb 18.1992 -57.9587
lclavicle -5.44018e-015 5.86415e-015
lhumerus -38.8622 -2.5225 93.7696
lradius 35.7959
lwrist -9.34863
lhand -4.32177 -24.5773
lfingers 7.12502
lthumb 21.4449 4.25577
rfemur 11.6343 -5.60133 15.156
rtibia 3.18055e-014
rfoot -12.8872 -4.14237
rtoes -6.66208
lfemur -1.2086 -6.04366 -12.8757
ltibia 23.7606
lfoot -23.2739 11.1584
ltoes -56.3615
